#!OML:ASF H:\ManfredETheater\Project 1\Capture day 1\Session 1\subject.ASF
:FULLY-SPECIFIED
:DEGREES
282
root 1.02301 15.0604 21.1388 26.0218 -5.57398 3.49473
lowerback 22.8283 -3.28427 2.78275
upperback 1.27872 -3.00594 4.76157
thorax -11.2605 -1.38884 4.7074
lowerneck -24.8625 20.4037 3.95784
upperneck -2.24221 50.3341 -4.96428
head 38.5328 -48.6237 141.957
rclavicle 3.10104e-014 -6.04305e-014
rhumerus -49.832 -10.0532 -55.9492
rradius 41.677
rwrist -6.64684
rhand -22.021 3.07663
rfingers 7.12502
rthumb 4.38853 -26.8579
lclavicle 3.10104e-014 -6.04305e-014
lhumerus -40.0462 -27.616 107.895
lradius 103.752
lwrist -8.55956
lhand -31.6695 -15.9336
lfingers 7.12502
lthumb -4.92965 13.9891
rfemur -79.4832 -7.02661 8.2123
rtibia 64.3396
rfoot -5.83974 -7.09811
rtoes -37.6442
lfemur -2.4941 -3.71652 -29.4513
ltibia 38.3775
lfoot 22.588 -20.633
ltoes 7.08168
283
root 0.986073 15.0691 21.622 25.5398 -5.64153 3.91994
lowerback 22.5088 -3.14049 2.40092
upperback 1.129 -2.94013 4.66924
thorax -11.2435 -1.34254 4.78593
lowerneck -24.5784 20.1367 3.91626
upperneck -2.20061 50.0534 -4.90457
head 38.5299 -48.9081 142.092
rclavicle 7.95139e-016 3.65764e-014
rhumerus -48.8393 -9.9387 -55.1827
rradius 40.8808
rwrist -6.47626
rhand -21.6875 2.82213
rfingers 7.12502
rthumb 4.71051 -27.1055
lclavicle 7.95139e-016 3.65764e-014
lhumerus -41.0665 -27.5473 108.063
lradius 102.511
lwrist -8.15873
lhand -31.0532 -15.4939
lfingers 7.12502
lthumb -4.33451 14.4418
rfemur -78.9972 -6.83849 7.87759
rtibia 61.4363
rfoot -3.44891 -7.06541
rtoes -35.1388
lfemur -0.0715981 -6.60778 -30.6868
ltibia 35.8772
lfoot 26.7517 -18.7738
ltoes 5.66422
284
root 0.950993 15.071 22.1025 25.0763 -5.66439 4.31451
lowerback 22.1938 -3.01093 2.09028
upperback 0.969925 -2.87262 4.56938
thorax -11.2437 -1.29859 4.81658
lowerneck -24.2921 19.8764 3.88951
upperneck -2.14541 49.7683 -4.82867
head 38.5037 -49.1453 142.238
rclavicle 4.85035e-014 -4.13472e-014
rhumerus -47.7378 -9.91019 -54.4717
rradius 40.0955
rwrist -6.22218
rhand -21.3299 2.56567
rfingers 7.12502
rthumb 5.05586 -27.354
lclavicle 4.85035e-014 -4.13472e-014
lhumerus -42.0407 -27.4679 108.148
lradius 101.126
lwrist -7.68926
lhand -30.3785 -15.1087
lfingers 7.12502
lthumb -3.68301 14.8392
rfemur -78.4797 -6.71477 7.70141
rtibia 59.1231
rfoot -1.29583 -7.20177
rtoes -31.8258
lfemur 1.95909 -9.2772 -32.003
ltibia 34.2597
lfoot 29.8609 -17.3047
ltoes 5.83414
285
root 0.917579 15.0678 22.5772 24.617 -5.63987 4.65834
lowerback 21.92 -2.89394 1.85584
upperback 0.809937 -2.7986 4.46708
thorax -11.2718 -1.25466 4.80274
lowerneck -24.0195 19.6214 3.87228
upperneck -2.08778 49.4855 -4.74836
head 38.4583 -49.3448 142.394
rclavicle 3.97569e-015 -7.87187e-014
rhumerus -46.5259 -9.9621 -53.836
rradius 39.336
rwrist -5.86035
rhand -20.9528 2.30812
rfingers 7.12502
rthumb 5.41989 -27.6026
lclavicle 3.97569e-015 -7.87187e-014
lhumerus -42.9422 -27.3757 108.142
lradius 99.6187
lwrist -7.15372
lhand -29.6553 -14.7657
lfingers 7.12502
lthumb -2.98457 15.1932
rfemur -77.9335 -6.63082 7.65175
rtibia 57.567
rfoot 0.297284 -7.52007
rtoes -28.032
lfemur 3.50976 -11.4331 -33.272
ltibia 33.706
lfoot 31.9235 -16.2131
ltoes 7.6694
286
root 0.885119 15.0615 23.045 24.1314 -5.572 4.90151
lowerback 21.7359 -2.7852 1.72428
upperback 0.665082 -2.70368 4.37424
thorax -11.3384 -1.20497 4.74034
lowerneck -23.7725 19.3726 3.86233
upperneck -2.03862 49.2148 -4.67512
head 38.3996 -49.5175 142.563
rclavicle 7.95139e-015 -4.45278e-014
rhumerus -45.2053 -10.0953 -53.2895
rradius 38.6241
rwrist -5.38066
rhand -20.5763 2.06757
rfingers 7.12502
rthumb 5.78341 -27.8335
lclavicle 7.95139e-015 -4.45278e-014
lhumerus -43.7516 -27.2531 108.04
lradius 98.0117
lwrist -6.55926
lhand -28.8707 -14.4622
lfingers 7.12502
lthumb -2.22683 15.5059
rfemur -77.3292 -6.52499 7.6955
rtibia 56.8793
rfoot 1.149 -7.86549
rtoes -24.2522
lfemur 4.55417 -12.8499 -34.3396
ltibia 34.2756
lfoot 32.971 -15.4175
ltoes 10.5594
287
root 0.852553 15.0527 23.5047 23.5977 -5.47646 5.03313
lowerback 21.6592 -2.67569 1.68
upperback 0.554146 -2.58039 4.29348
thorax -11.4313 -1.1457 4.63852
lowerneck -23.5733 19.1313 3.85141
upperneck -2.00024 48.9618 -4.61339
head 38.3372 -49.6602 142.725
rclavicle -7.95139e-015 -3.18055e-015
rhumerus -43.7833 -10.3041 -52.8541
rradius 38.0021
rwrist -4.81012
rhand -20.2149 1.84614
rfingers 7.12502
rthumb 6.13234 -28.0451
lclavicle -7.95139e-015 -3.18055e-015
lhumerus -44.4454 -27.08 107.835
lradius 96.3221
lwrist -5.9572
lhand -28.0511 -14.1888
lfingers 7.12502
lthumb -1.43523 15.7861
rfemur -76.6456 -6.34525 7.74258
rtibia 57.0842
rfoot 1.20385 -8.14836
rtoes -20.9673
lfemur 5.09411 -13.517 -35.1336
ltibia 35.911
lfoot 33.161 -14.5922
ltoes 13.6912
288
root 0.819416 15.0414 23.9557 23.0389 -5.34651 4.96506
lowerback 21.6742 -2.56626 1.79864
upperback 0.481884 -2.40965 4.24747
thorax -11.5398 -1.07207 4.47177
lowerneck -23.4378 18.8963 3.83297
upperneck -1.96862 48.7127 -4.55843
head 38.2901 -49.7822 142.841
rclavicle -2.3059e-014 1.59028e-014
rhumerus -42.2695 -10.6007 -52.5378
rradius 37.5036
rwrist -4.18576
rhand -19.8643 1.62922
rfingers 7.12502
rthumb 6.47083 -28.2519
lclavicle -2.3059e-014 1.59028e-014
lhumerus -45.0153 -26.8236 107.527
lradius 94.5624
lwrist -5.37477
lhand -27.2395 -13.9694
lfingers 7.12502
lthumb -0.65143 16.0093
rfemur -75.8622 -6.03052 7.81207
rtibia 58.0823
rfoot 0.47009 -8.40865
rtoes -18.8353
lfemur 5.15727 -13.545 -35.5356
ltibia 38.4612
lfoot 32.6377 -13.549
ltoes 16.2835
